<?xml version="1.0" standalone="no"?>
<!DOCTYPE svg PUBLIC "-//W3C//DTD SVG 20010904//EN"
 "http://www.w3.org/TR/2001/REC-SVG-20010904/DTD/svg10.dtd">
<svg version="1.0" xmlns="http://www.w3.org/2000/svg"
 width="770.000000pt" height="770.000000pt" viewBox="0 0 770.000000 770.000000"
 preserveAspectRatio="xMidYMid meet">
<metadata>
Created by potrace 1.11, written by Peter Selinger 2001-2013
</metadata>
<g transform="translate(0.000000,770.000000) scale(0.100000,-0.100000)"
fill="#000000" stroke="none">
<path d="M3176 7691 c-15 -23 -28 -165 -22 -242 12 -177 73 -308 205 -440 96
-96 174 -144 291 -181 108 -33 292 -33 400 0 117 37 195 85 291 181 96 96 144
174 181 291 19 64 23 95 22 205 -1 72 -6 144 -11 160 -9 30 -11 30 -86 33 -42
2 -77 -1 -77 -5 1 -4 7 -35 15 -68 45 -185 -10 -372 -149 -511 -139 -139 -314
-191 -508 -150 -105 23 -174 62 -259 146 -145 142 -200 327 -154 515 8 33 14
63 15 68 0 10 -148 9 -154 -2z"/>
<path d="M3721 6370 c-25 -5 -67 -17 -95 -26 -192 -62 -378 -250 -443 -448
-23 -70 -26 -98 -27 -211 -1 -149 18 -230 81 -345 48 -86 187 -225 273 -273
113 -62 197 -82 340 -82 103 0 138 4 200 23 117 37 195 85 291 181 148 148
203 281 204 486 0 212 -54 344 -200 491 -145 147 -272 203 -470 210 -60 1
-130 -1 -154 -6z"/>
<path d="M3704 4536 c-146 -33 -253 -96 -362 -210 -80 -85 -131 -170 -164
-276 -19 -61 -23 -98 -23 -200 0 -143 21 -228 82 -338 78 -141 243 -278 397
-329 72 -24 97 -27 216 -27 122 0 143 2 215 28 110 38 209 102 292 190 81 85
132 169 165 276 33 107 33 293 0 400 -36 116 -85 195 -181 291 -141 141 -270
198 -466 205 -72 2 -131 -1 -171 -10z"/>
<path d="M3704 2716 c-146 -33 -253 -96 -362 -210 -80 -85 -131 -170 -164
-276 -33 -107 -33 -293 0 -400 36 -116 85 -195 181 -291 96 -96 174 -144 291
-181 62 -19 97 -23 200 -23 103 0 138 4 200 23 117 37 195 85 291 181 96 96
145 175 181 291 33 107 33 293 0 400 -36 116 -85 195 -181 291 -141 141 -270
198 -466 205 -72 2 -131 -1 -171 -10z"/>
</g>
</svg>
